<svg width="146" height="51" viewBox="0 0 146 51" fill="none" xmlns="http://www.w3.org/2000/svg">
<path d="M22.4667 2.19067C16.6861 2.19067 12.2059 10.7438 11.4026 22.6263C12.4395 23.7286 13.6576 24.8215 15.0084 25.8883C15.0233 24.6478 15.0962 23.4651 15.1971 22.3049C16.3464 21.4962 17.5249 20.7297 18.7301 20.0069C23.6998 17.1372 28.8152 15.2464 33.1291 14.6859C33.9133 14.582 34.7034 14.5284 35.4944 14.5253C37.9176 14.5253 39.6327 15.1082 40.2661 16.203C40.8359 17.1951 40.58 18.7719 39.6253 20.6178C40.6024 21.524 41.5309 22.4432 42.353 23.3698C44.4567 19.8892 44.8864 16.7261 43.502 14.3347C41.8523 11.4818 38.0054 10.2842 32.6565 10.9773C30.9834 11.1938 29.2117 11.5855 27.3846 12.1361C23.9761 13.1634 20.3751 14.744 16.8636 16.7728C16.5199 16.969 16.2004 17.1876 15.8641 17.4006C17.2055 10.486 19.9351 5.9273 22.4667 5.9273C23.6493 5.9273 24.8768 6.93618 25.9847 8.68679C27.2166 8.29732 28.466 7.96564 29.7288 7.69285C27.7951 4.22713 25.2822 2.19067 22.4667 2.19067ZM9.79768 10.8092C5.74531 10.7363 2.81206 11.9489 1.43325 14.3347C-0.0688724 16.9316 0.557012 20.4217 3.14089 24.2536C3.37442 24.6104 3.63038 24.9897 3.95173 25.4063C4.90529 26.6538 6.03319 27.9 7.30662 29.1209C9.95039 31.6557 13.2214 34.0819 16.8618 36.1865C17.2055 36.3826 17.5624 36.5583 17.9136 36.7544C15.7744 37.4924 13.7024 38.0249 11.7968 38.2734C8.15356 38.746 5.49122 38.1781 4.67477 36.7544C4.09746 35.7624 4.35342 34.1855 5.30999 32.3396C4.35782 31.4654 3.44457 30.5496 2.57292 29.5951C0.476675 33.0701 0.0469629 36.2276 1.43325 38.6227C2.77657 40.9507 5.57903 42.1763 9.46138 42.1763C10.3451 42.1763 11.2923 42.1109 12.2788 41.9801C12.8486 41.9054 13.4185 41.8119 14.0014 41.6961L14.4105 41.6083C14.4386 41.6083 14.461 41.6008 14.489 41.5934C15.4829 41.3822 16.5778 41.0889 17.8333 40.6966L19.0664 40.3154C20.8973 39.6877 22.7731 38.9067 24.6489 37.995C25.058 36.6367 25.4224 35.0543 25.6989 33.2308C24.619 33.8343 23.5316 34.3817 22.4517 34.8936C21.1829 34.3015 19.9411 33.6532 18.7301 32.9505C13.7529 30.0771 9.55667 26.5964 6.92235 23.1419C4.68785 20.2161 3.84898 17.6267 4.67477 16.203C5.23526 15.2259 6.72431 14.671 8.77571 14.5682C9.06717 13.2473 9.40346 11.9918 9.79768 10.8092ZM31.3262 18.8149C29.8521 19.1587 28.2902 19.6631 26.6928 20.2965C27.7503 20.9242 28.7573 21.5968 29.7363 22.2675C29.8521 23.6258 29.9399 25.0121 29.9399 26.4787C29.9399 37.498 26.4742 45.9054 23.1393 46.9199C22.9114 46.9946 22.6778 47.0301 22.4667 47.0301C21.2841 47.0301 20.0566 46.0306 18.9487 44.265C17.6782 44.6649 16.4246 45.0086 15.2046 45.2646C17.1383 48.7303 19.6511 50.7668 22.4667 50.7668C22.8404 50.7668 23.1953 50.7294 23.5466 50.6565C27.5015 49.907 30.7416 45.0812 32.4239 37.995C33.2283 34.6068 33.6766 30.7019 33.6766 26.4787C33.6766 26.077 33.6467 25.6903 33.6392 25.2886C35.3487 26.7702 36.8527 28.2966 38.0185 29.8137C40.2455 32.7413 41.0825 35.3308 40.2661 36.7544C39.6907 37.739 38.224 38.3089 36.1577 38.4116C35.8841 39.6763 35.5455 40.926 35.1432 42.1557C35.2459 42.1557 35.3693 42.1763 35.472 42.1763C39.3544 42.1763 42.1568 40.9507 43.5001 38.6227C45.1499 35.7698 44.2587 31.8352 40.9817 27.5511C38.6612 24.5151 35.2964 21.4941 31.3262 18.8149ZM22.4667 22.7421C21.4757 22.7421 20.5253 23.1358 19.8245 23.8365C19.1238 24.5373 18.7301 25.4877 18.7301 26.4787C18.7301 27.4697 19.8245 29.1209 19.8245 29.1209L22.4667 25.6567L25.1089 29.1209C25.1089 29.1209 26.2033 27.4697 26.2033 26.4787C26.2033 25.4877 25.8096 24.5373 25.1089 23.8365C24.4081 23.1358 23.4577 22.7421 22.4667 22.7421Z" fill="#FCFCFC"/>
<path d="M15.8641 17.4006C16.2004 17.1876 16.5199 16.969 16.8636 16.7728C20.3751 14.744 23.9761 13.1634 27.3846 12.1361L25.9847 8.68679C24.8768 6.93618 23.6493 5.9273 22.4667 5.9273C19.9351 5.9273 17.2055 10.486 15.8641 17.4006Z" fill="#6366F1"/>
<path d="M33.6392 25.2886C33.6467 25.6903 33.6766 26.077 33.6766 26.4787C33.6766 30.7019 33.2283 34.6068 32.4239 37.995L36.1577 38.4116C38.224 38.3089 39.6907 37.739 40.2661 36.7544C41.0825 35.3308 40.2455 32.7413 38.0185 29.8137C36.8527 28.2966 35.3487 26.7702 33.6392 25.2886Z" fill="#6366F1"/>
<path d="M17.9136 36.7544C17.5624 36.5583 17.2055 36.3826 16.8618 36.1865C13.2214 34.0819 9.95039 31.6557 7.30662 29.1209L5.30999 32.3396C4.35342 34.1855 4.09746 35.7624 4.67477 36.7544C5.49122 38.1781 8.15356 38.746 11.7968 38.2734C13.7024 38.0249 15.7744 37.4924 17.9136 36.7544Z" fill="#6366F1"/>
<mask id="path-2-outside-1_610_229" maskUnits="userSpaceOnUse" x="55.3691" y="-1" width="89" height="23" fill="black">
<rect fill="white" x="55.3691" y="-1" width="89" height="23"/>
<path d="M56.2578 21L65.0329 0.0896874H65.1995L73.9468 21H70.8644L64.3109 4.31063L66.227 3.06101L58.8958 21H56.2578ZM61.3951 13.3912H68.865L69.7537 15.7238H60.6175L61.3951 13.3912ZM73.0174 0.922767H86.3467V3.50532H80.9595V21H78.2658V3.50532H73.0174V0.922767ZM88.9585 21V0.284072H88.9863L99.5109 15.224L98.3723 15.0018L108.869 0.284072H108.925V21H106.259V6.39333L106.425 7.75402L98.8444 18.473H98.7889L91.0968 7.75402L91.5689 6.5044V21H88.9585ZM115.444 13.891C115.444 14.7982 115.657 15.6127 116.082 16.3348C116.527 17.0382 117.11 17.5936 117.832 18.0009C118.554 18.4082 119.368 18.6118 120.276 18.6118C121.22 18.6118 122.062 18.4082 122.803 18.0009C123.543 17.5936 124.126 17.0382 124.552 16.3348C124.978 15.6127 125.191 14.7982 125.191 13.891V0.922767H127.829V13.9744C127.829 15.4369 127.486 16.7143 126.801 17.8065C126.135 18.8988 125.228 19.7411 124.08 20.3335C122.951 20.9259 121.683 21.2222 120.276 21.2222C118.869 21.2222 117.601 20.9259 116.471 20.3335C115.342 19.7411 114.444 18.8988 113.778 17.8065C113.111 16.7143 112.778 15.4369 112.778 13.9744V0.922767H115.444V13.891ZM142.059 4.50501C141.374 4.15327 140.624 3.8478 139.81 3.58862C138.995 3.32944 138.199 3.19985 137.422 3.19985C136.348 3.19985 135.487 3.44978 134.839 3.94963C134.21 4.44947 133.895 5.11594 133.895 5.94902C133.895 6.57846 134.099 7.11533 134.506 7.55964C134.913 7.98544 135.45 8.35569 136.117 8.67041C136.783 8.98513 137.477 9.28134 138.199 9.55903C138.829 9.7997 139.449 10.0681 140.06 10.3643C140.671 10.6605 141.217 11.0308 141.698 11.4751C142.198 11.9194 142.587 12.4656 142.864 13.1135C143.161 13.7615 143.309 14.5668 143.309 15.5294C143.309 16.5847 143.04 17.5473 142.503 18.4175C141.985 19.2876 141.235 19.9725 140.254 20.4724C139.273 20.9722 138.107 21.2222 136.755 21.2222C135.867 21.2222 135.015 21.1203 134.2 20.9167C133.404 20.7131 132.664 20.4539 131.979 20.1392C131.294 19.8059 130.683 19.4634 130.146 19.1117L131.34 17.0012C131.785 17.3159 132.294 17.6214 132.868 17.9176C133.441 18.1953 134.043 18.4267 134.673 18.6118C135.302 18.7785 135.913 18.8618 136.505 18.8618C137.135 18.8618 137.755 18.7507 138.366 18.5285C138.995 18.2879 139.514 17.9269 139.921 17.4455C140.328 16.9642 140.532 16.3255 140.532 15.5294C140.532 14.8445 140.347 14.2798 139.976 13.8355C139.625 13.3727 139.153 12.9839 138.56 12.6692C137.968 12.336 137.338 12.0398 136.672 11.7806C136.042 11.5399 135.404 11.2807 134.756 11.003C134.108 10.7068 133.506 10.3551 132.951 9.9478C132.395 9.52201 131.951 9.00364 131.618 8.39272C131.285 7.78179 131.118 7.04128 131.118 6.17117C131.118 5.11594 131.368 4.19955 131.868 3.42201C132.386 2.62595 133.09 2.00577 133.978 1.56146C134.867 1.09864 135.885 0.848716 137.033 0.811689C138.329 0.811689 139.467 0.969049 140.449 1.28377C141.448 1.59849 142.328 1.98726 143.087 2.45008L142.059 4.50501Z"/>
</mask>
<path d="M56.2578 21L65.0329 0.0896874H65.1995L73.9468 21H70.8644L64.3109 4.31063L66.227 3.06101L58.8958 21H56.2578ZM61.3951 13.3912H68.865L69.7537 15.7238H60.6175L61.3951 13.3912ZM73.0174 0.922767H86.3467V3.50532H80.9595V21H78.2658V3.50532H73.0174V0.922767ZM88.9585 21V0.284072H88.9863L99.5109 15.224L98.3723 15.0018L108.869 0.284072H108.925V21H106.259V6.39333L106.425 7.75402L98.8444 18.473H98.7889L91.0968 7.75402L91.5689 6.5044V21H88.9585ZM115.444 13.891C115.444 14.7982 115.657 15.6127 116.082 16.3348C116.527 17.0382 117.11 17.5936 117.832 18.0009C118.554 18.4082 119.368 18.6118 120.276 18.6118C121.22 18.6118 122.062 18.4082 122.803 18.0009C123.543 17.5936 124.126 17.0382 124.552 16.3348C124.978 15.6127 125.191 14.7982 125.191 13.891V0.922767H127.829V13.9744C127.829 15.4369 127.486 16.7143 126.801 17.8065C126.135 18.8988 125.228 19.7411 124.08 20.3335C122.951 20.9259 121.683 21.2222 120.276 21.2222C118.869 21.2222 117.601 20.9259 116.471 20.3335C115.342 19.7411 114.444 18.8988 113.778 17.8065C113.111 16.7143 112.778 15.4369 112.778 13.9744V0.922767H115.444V13.891ZM142.059 4.50501C141.374 4.15327 140.624 3.8478 139.81 3.58862C138.995 3.32944 138.199 3.19985 137.422 3.19985C136.348 3.19985 135.487 3.44978 134.839 3.94963C134.21 4.44947 133.895 5.11594 133.895 5.94902C133.895 6.57846 134.099 7.11533 134.506 7.55964C134.913 7.98544 135.45 8.35569 136.117 8.67041C136.783 8.98513 137.477 9.28134 138.199 9.55903C138.829 9.7997 139.449 10.0681 140.06 10.3643C140.671 10.6605 141.217 11.0308 141.698 11.4751C142.198 11.9194 142.587 12.4656 142.864 13.1135C143.161 13.7615 143.309 14.5668 143.309 15.5294C143.309 16.5847 143.04 17.5473 142.503 18.4175C141.985 19.2876 141.235 19.9725 140.254 20.4724C139.273 20.9722 138.107 21.2222 136.755 21.2222C135.867 21.2222 135.015 21.1203 134.2 20.9167C133.404 20.7131 132.664 20.4539 131.979 20.1392C131.294 19.8059 130.683 19.4634 130.146 19.1117L131.34 17.0012C131.785 17.3159 132.294 17.6214 132.868 17.9176C133.441 18.1953 134.043 18.4267 134.673 18.6118C135.302 18.7785 135.913 18.8618 136.505 18.8618C137.135 18.8618 137.755 18.7507 138.366 18.5285C138.995 18.2879 139.514 17.9269 139.921 17.4455C140.328 16.9642 140.532 16.3255 140.532 15.5294C140.532 14.8445 140.347 14.2798 139.976 13.8355C139.625 13.3727 139.153 12.9839 138.56 12.6692C137.968 12.336 137.338 12.0398 136.672 11.7806C136.042 11.5399 135.404 11.2807 134.756 11.003C134.108 10.7068 133.506 10.3551 132.951 9.9478C132.395 9.52201 131.951 9.00364 131.618 8.39272C131.285 7.78179 131.118 7.04128 131.118 6.17117C131.118 5.11594 131.368 4.19955 131.868 3.42201C132.386 2.62595 133.09 2.00577 133.978 1.56146C134.867 1.09864 135.885 0.848716 137.033 0.811689C138.329 0.811689 139.467 0.969049 140.449 1.28377C141.448 1.59849 142.328 1.98726 143.087 2.45008L142.059 4.50501Z" fill="#F0F0F0"/>
<path d="M56.2578 21L56.0067 20.8947L55.8483 21.2722H56.2578V21ZM65.0329 0.0896874V-0.182561H64.8519L64.7818 -0.0156623L65.0329 0.0896874ZM65.1995 0.0896874L65.4506 -0.0153786L65.3807 -0.182561H65.1995V0.0896874ZM73.9468 21V21.2722H74.3558L74.198 20.8949L73.9468 21ZM70.8644 21L70.611 21.0995L70.6789 21.2722H70.8644V21ZM64.3109 4.31063L64.1621 4.08259L63.9764 4.20373L64.0575 4.41014L64.3109 4.31063ZM66.227 3.06101L66.479 3.164L66.809 2.35637L66.0782 2.83297L66.227 3.06101ZM58.8958 21V21.2722H59.0787L59.1479 21.103L58.8958 21ZM61.3951 13.3912V13.119H61.1989L61.1368 13.3051L61.3951 13.3912ZM68.865 13.3912L69.1195 13.2943L69.0527 13.119H68.865V13.3912ZM69.7537 15.7238V15.9961H70.1487L70.0081 15.6269L69.7537 15.7238ZM60.6175 15.7238L60.3593 15.6377L60.2398 15.9961H60.6175V15.7238ZM56.5088 21.1053L65.2839 0.195037L64.7818 -0.0156623L56.0067 20.8947L56.5088 21.1053ZM65.0329 0.361936H65.1995V-0.182561H65.0329V0.361936ZM64.9483 0.194754L73.6957 21.1051L74.198 20.8949L65.4506 -0.0153786L64.9483 0.194754ZM73.9468 20.7278H70.8644V21.2722H73.9468V20.7278ZM71.1178 20.9005L64.5643 4.21112L64.0575 4.41014L70.611 21.0995L71.1178 20.9005ZM64.4596 4.53867L66.3757 3.28904L66.0782 2.83297L64.1621 4.08259L64.4596 4.53867ZM65.9749 2.95802L58.6438 20.897L59.1479 21.103L66.479 3.164L65.9749 2.95802ZM58.8958 20.7278H56.2578V21.2722H58.8958V20.7278ZM61.3951 13.6634H68.865V13.119H61.3951V13.6634ZM68.6106 13.4881L69.4992 15.8207L70.0081 15.6269L69.1195 13.2943L68.6106 13.4881ZM69.7537 15.4516H60.6175V15.9961H69.7537V15.4516ZM60.8758 15.8099L61.6534 13.4773L61.1368 13.3051L60.3593 15.6377L60.8758 15.8099ZM73.0174 0.922767V0.650518H72.7452V0.922767H73.0174ZM86.3467 0.922767H86.619V0.650518H86.3467V0.922767ZM86.3467 3.50532V3.77756H86.619V3.50532H86.3467ZM80.9595 3.50532V3.23307H80.6872V3.50532H80.9595ZM80.9595 21V21.2722H81.2317V21H80.9595ZM78.2658 21H77.9936V21.2722H78.2658V21ZM78.2658 3.50532H78.5381V3.23307H78.2658V3.50532ZM73.0174 3.50532H72.7452V3.77756H73.0174V3.50532ZM73.0174 1.19502H86.3467V0.650518H73.0174V1.19502ZM86.0745 0.922767V3.50532H86.619V0.922767H86.0745ZM86.3467 3.23307H80.9595V3.77756H86.3467V3.23307ZM80.6872 3.50532V21H81.2317V3.50532H80.6872ZM80.9595 20.7278H78.2658V21.2722H80.9595V20.7278ZM78.5381 21V3.50532H77.9936V21H78.5381ZM78.2658 3.23307H73.0174V3.77756H78.2658V3.23307ZM73.2897 3.50532V0.922767H72.7452V3.50532H73.2897ZM88.9585 21H88.6863V21.2722H88.9585V21ZM88.9585 0.284072V0.0118236H88.6863V0.284072H88.9585ZM88.9863 0.284072L89.2089 0.127282L89.1275 0.0118236H88.9863V0.284072ZM99.5109 15.224L99.4588 15.4912L100.124 15.6209L99.7335 15.0672L99.5109 15.224ZM98.3723 15.0018L98.1507 14.8437L97.9051 15.188L98.3202 15.269L98.3723 15.0018ZM108.869 0.284072V0.0118236H108.729L108.648 0.125989L108.869 0.284072ZM108.925 0.284072H109.197V0.0118236H108.925V0.284072ZM108.925 21V21.2722H109.197V21H108.925ZM106.259 21H105.987V21.2722H106.259V21ZM106.259 6.39333L106.529 6.36024L105.987 6.39333H106.259ZM106.425 7.75402L106.648 7.91123L106.708 7.82535L106.696 7.72094L106.425 7.75402ZM98.8444 18.473V18.7452H98.9853L99.0667 18.6302L98.8444 18.473ZM98.7889 18.473L98.5677 18.6317L98.6492 18.7452H98.7889V18.473ZM91.0968 7.75402L90.8421 7.65781L90.7906 7.79425L90.8756 7.91275L91.0968 7.75402ZM91.5689 6.5044H91.8411L91.3142 6.40819L91.5689 6.5044ZM91.5689 21V21.2722H91.8411V21H91.5689ZM89.2308 21V0.284072H88.6863V21H89.2308ZM88.9585 0.55632H88.9863V0.0118236H88.9585V0.55632ZM88.7637 0.440862L99.2883 15.3808L99.7335 15.0672L89.2089 0.127282L88.7637 0.440862ZM99.563 14.9568L98.4245 14.7346L98.3202 15.269L99.4588 15.4912L99.563 14.9568ZM98.594 15.1599L109.091 0.442155L108.648 0.125989L98.1507 14.8437L98.594 15.1599ZM108.869 0.55632H108.925V0.0118236H108.869V0.55632ZM108.652 0.284072V21H109.197V0.284072H108.652ZM108.925 20.7278H106.259V21.2722H108.925V20.7278ZM106.531 21V6.39333H105.987V21H106.531ZM105.989 6.42642L106.155 7.78711L106.696 7.72094L106.529 6.36024L105.989 6.42642ZM106.203 7.59682L98.6222 18.3158L99.0667 18.6302L106.648 7.91123L106.203 7.59682ZM98.8444 18.2007H98.7889V18.7452H98.8444V18.2007ZM99.0101 18.3143L91.318 7.5953L90.8756 7.91275L98.5677 18.6317L99.0101 18.3143ZM91.3515 7.85024L91.8235 6.60062L91.3142 6.40819L90.8421 7.65781L91.3515 7.85024ZM91.2966 6.5044V21H91.8411V6.5044H91.2966ZM91.5689 20.7278H88.9585V21.2722H91.5689V20.7278ZM116.082 16.3348L115.848 16.4731L115.852 16.4801L116.082 16.3348ZM117.832 18.0009L117.698 18.238L117.698 18.238L117.832 18.0009ZM122.803 18.0009L122.934 18.2395L122.934 18.2395L122.803 18.0009ZM124.552 16.3348L124.785 16.4757L124.787 16.473L124.552 16.3348ZM125.191 0.922767V0.650518H124.919V0.922767H125.191ZM127.829 0.922767H128.101V0.650518H127.829V0.922767ZM126.801 17.8065L126.571 17.6619L126.569 17.6647L126.801 17.8065ZM124.08 20.3335L123.955 20.0916L123.954 20.0924L124.08 20.3335ZM116.471 20.3335L116.598 20.0924L116.598 20.0924L116.471 20.3335ZM113.778 17.8065L114.01 17.6647L114.01 17.6647L113.778 17.8065ZM112.778 0.922767V0.650518H112.506V0.922767H112.778ZM115.444 0.922767H115.716V0.650518H115.444V0.922767ZM115.172 13.891C115.172 14.8427 115.395 15.7057 115.848 16.473L116.317 16.1965C115.918 15.5198 115.716 14.7537 115.716 13.891H115.172ZM115.852 16.4801C116.321 17.2216 116.937 17.8085 117.698 18.238L117.966 17.7638C117.283 17.3787 116.733 16.8549 116.313 16.1894L115.852 16.4801ZM117.698 18.238C118.465 18.6705 119.326 18.8841 120.276 18.8841V18.3396C119.411 18.3396 118.643 18.1459 117.966 17.7638L117.698 18.238ZM120.276 18.8841C121.26 18.8841 122.149 18.6713 122.934 18.2395L122.671 17.7624C121.976 18.145 121.179 18.3396 120.276 18.3396V18.8841ZM122.934 18.2395C123.715 17.8098 124.334 17.2213 124.785 16.4757L124.319 16.1938C123.919 16.8552 123.371 17.3774 122.671 17.7624L122.934 18.2395ZM124.787 16.473C125.239 15.7057 125.463 14.8427 125.463 13.891H124.919C124.919 14.7537 124.717 15.5198 124.318 16.1965L124.787 16.473ZM125.463 13.891V0.922767H124.919V13.891H125.463ZM125.191 1.19502H127.829V0.650518H125.191V1.19502ZM127.557 0.922767V13.9744H128.101V0.922767H127.557ZM127.557 13.9744C127.557 15.3928 127.225 16.6186 126.571 17.6619L127.032 17.9512C127.748 16.8099 128.101 15.481 128.101 13.9744H127.557ZM126.569 17.6647C125.929 18.714 125.059 19.5219 123.955 20.0916L124.205 20.5755C125.397 19.9604 126.341 19.0836 127.034 17.9483L126.569 17.6647ZM123.954 20.0924C122.867 20.6623 121.643 20.9499 120.276 20.9499V21.4944C121.722 21.4944 123.034 21.1896 124.207 20.5746L123.954 20.0924ZM120.276 20.9499C118.908 20.9499 117.684 20.6623 116.598 20.0924L116.345 20.5746C117.517 21.1896 118.829 21.4944 120.276 21.4944V20.9499ZM116.598 20.0924C115.512 19.523 114.651 18.7151 114.01 17.6647L113.545 17.9483C114.237 19.0825 115.172 19.9592 116.345 20.5746L116.598 20.0924ZM114.01 17.6647C113.373 16.621 113.05 15.3941 113.05 13.9744H112.506C112.506 15.4796 112.849 16.8075 113.545 17.9483L114.01 17.6647ZM113.05 13.9744V0.922767H112.506V13.9744H113.05ZM112.778 1.19502H115.444V0.650518H112.778V1.19502ZM115.172 0.922767V13.891H115.716V0.922767H115.172ZM142.059 4.50501L141.935 4.74719L142.18 4.8729L142.303 4.62676L142.059 4.50501ZM134.839 3.94963L134.673 3.73404L134.67 3.73642L134.839 3.94963ZM134.506 7.55964L134.305 7.74365L134.309 7.74782L134.506 7.55964ZM136.117 8.67041L136.233 8.42423L136.233 8.42423L136.117 8.67041ZM138.199 9.55903L138.101 9.81313L138.102 9.81333L138.199 9.55903ZM141.698 11.4751L141.513 11.6752L141.517 11.6786L141.698 11.4751ZM142.864 13.1135L142.614 13.2208L142.617 13.2267L142.864 13.1135ZM142.503 18.4175L142.272 18.2745L142.27 18.2781L142.503 18.4175ZM140.254 20.4724L140.378 20.715L140.254 20.4724ZM134.2 20.9167L134.133 21.1805L134.134 21.1808L134.2 20.9167ZM131.979 20.1392L131.86 20.384L131.865 20.3865L131.979 20.1392ZM130.146 19.1117L129.909 18.9776L129.784 19.1996L129.997 19.3394L130.146 19.1117ZM131.34 17.0012L131.498 16.7791L131.252 16.6049L131.103 16.8672L131.34 17.0012ZM132.868 17.9176L132.743 18.1596L132.749 18.1627L132.868 17.9176ZM134.673 18.6118L134.596 18.8731L134.603 18.875L134.673 18.6118ZM138.366 18.5285L138.459 18.7844L138.463 18.7828L138.366 18.5285ZM139.921 17.4455L140.129 17.6214L140.129 17.6214L139.921 17.4455ZM139.976 13.8355L139.759 14.0004L139.767 14.0098L139.976 13.8355ZM138.56 12.6692L138.427 12.9066L138.432 12.9096L138.56 12.6692ZM136.672 11.7806L136.771 11.5268L136.769 11.5263L136.672 11.7806ZM134.756 11.003L134.643 11.2507L134.649 11.2533L134.756 11.003ZM132.951 9.9478L132.785 10.1639L132.79 10.1673L132.951 9.9478ZM131.868 3.42201L131.64 3.27345L131.639 3.27479L131.868 3.42201ZM133.978 1.56146L134.1 1.805L134.104 1.80292L133.978 1.56146ZM137.033 0.811689V0.539299L137.024 0.539582L137.033 0.811689ZM140.449 1.28377L140.365 1.54301L140.367 1.54345L140.449 1.28377ZM143.087 2.45008L143.33 2.57183L143.442 2.34795L143.228 2.21764L143.087 2.45008ZM142.184 4.26283C141.484 3.90348 140.72 3.59246 139.892 3.32919L139.727 3.84806C140.529 4.10315 141.265 4.40305 141.935 4.74719L142.184 4.26283ZM139.892 3.32919C139.054 3.06236 138.23 2.9276 137.422 2.9276V3.4721C138.169 3.4721 138.937 3.59653 139.727 3.84806L139.892 3.32919ZM137.422 2.9276C136.307 2.9276 135.381 3.18742 134.673 3.73406L135.005 4.16519C135.593 3.71213 136.389 3.4721 137.422 3.4721V2.9276ZM134.67 3.73642C133.973 4.29007 133.623 5.03641 133.623 5.94902H134.167C134.167 5.19547 134.447 4.60888 135.008 4.16283L134.67 3.73642ZM133.623 5.94902C133.623 6.64325 133.85 7.24669 134.305 7.7436L134.707 7.37567C134.348 6.98397 134.167 6.51366 134.167 5.94902H133.623ZM134.309 7.74782C134.744 8.20292 135.311 8.59107 136 8.91659L136.233 8.42423C135.589 8.12032 135.082 7.76795 134.703 7.37146L134.309 7.74782ZM136 8.91659C136.673 9.23432 137.374 9.53315 138.101 9.81313L138.297 9.30493C137.581 9.02953 136.893 8.73595 136.233 8.42423L136 8.91659ZM138.102 9.81333C138.724 10.0512 139.337 10.3165 139.941 10.6093L140.179 10.1194C139.561 9.81977 138.933 9.54822 138.296 9.30474L138.102 9.81333ZM139.941 10.6093C140.529 10.8943 141.053 11.2496 141.513 11.6752L141.883 11.2751C141.381 10.812 140.813 10.4268 140.179 10.1194L139.941 10.6093ZM141.517 11.6786C141.986 12.0949 142.351 12.6076 142.614 13.2208L143.115 13.0063C142.822 12.3236 142.41 11.744 141.879 11.2716L141.517 11.6786ZM142.617 13.2267C142.892 13.829 143.037 14.5929 143.037 15.5294H143.581C143.581 14.5407 143.429 13.694 143.112 13.0003L142.617 13.2267ZM143.037 15.5294C143.037 16.5359 142.781 17.4488 142.272 18.2745L142.735 18.5604C143.299 17.6459 143.581 16.6335 143.581 15.5294H143.037ZM142.27 18.2781C141.78 19.1002 141.07 19.7512 140.131 20.2298L140.378 20.715C141.401 20.1939 142.19 19.4749 142.737 18.5568L142.27 18.2781ZM140.131 20.2298C139.195 20.7062 138.073 20.9499 136.755 20.9499V21.4944C138.14 21.4944 139.351 21.2383 140.378 20.715L140.131 20.2298ZM136.755 20.9499C135.888 20.9499 135.058 20.8505 134.266 20.6526L134.134 21.1808C134.972 21.3902 135.846 21.4944 136.755 21.4944V20.9499ZM134.268 20.6529C133.486 20.453 132.761 20.1991 132.093 19.8918L131.865 20.3865C132.566 20.7087 133.322 20.9731 134.133 21.1804L134.268 20.6529ZM132.098 19.8943C131.422 19.5653 130.821 19.2283 130.295 18.884L129.997 19.3394C130.545 19.6985 131.166 20.0466 131.86 20.384L132.098 19.8943ZM130.383 19.2457L131.577 17.1353L131.103 16.8672L129.909 18.9776L130.383 19.2457ZM131.183 17.2234C131.639 17.5466 132.159 17.8585 132.743 18.1595L132.992 17.6757C132.428 17.3843 131.93 17.0852 131.498 16.7791L131.183 17.2234ZM132.749 18.1627C133.337 18.4471 133.952 18.6838 134.596 18.873L134.749 18.3507C134.134 18.1696 133.546 17.9435 132.986 17.6725L132.749 18.1627ZM134.603 18.875C135.253 19.0471 135.887 19.134 136.505 19.134V18.5895C135.939 18.5895 135.351 18.5098 134.742 18.3487L134.603 18.875ZM136.505 19.134C137.168 19.134 137.819 19.017 138.459 18.7844L138.273 18.2727C137.691 18.4843 137.102 18.5895 136.505 18.5895V19.134ZM138.463 18.7828C139.132 18.5269 139.69 18.1402 140.129 17.6214L139.713 17.2697C139.338 17.7135 138.858 18.0488 138.269 18.2742L138.463 18.7828ZM140.129 17.6214C140.588 17.0791 140.804 16.3725 140.804 15.5294H140.26C140.26 16.2785 140.069 16.8493 139.713 17.2697L140.129 17.6214ZM140.804 15.5294C140.804 14.7931 140.604 14.1631 140.186 13.6612L139.767 14.0098C140.09 14.3965 140.26 14.8959 140.26 15.5294H140.804ZM140.193 13.6708C139.814 13.1721 139.31 12.7591 138.688 12.4288L138.432 12.9096C138.995 13.2087 139.435 13.5733 139.76 14.0002L140.193 13.6708ZM138.694 12.4319C138.09 12.0921 137.448 11.7904 136.771 11.5268L136.573 12.0343C137.228 12.2891 137.846 12.5799 138.427 12.9065L138.694 12.4319ZM136.769 11.5263C136.143 11.287 135.508 11.0291 134.863 10.7528L134.649 11.2533C135.3 11.5323 135.942 11.7929 136.575 12.0349L136.769 11.5263ZM134.869 10.7554C134.237 10.4667 133.652 10.1242 133.112 9.72826L132.79 10.1673C133.361 10.586 133.978 10.947 134.643 11.2506L134.869 10.7554ZM133.116 9.73174C132.591 9.32894 132.172 8.83971 131.857 8.26235L131.379 8.52309C131.73 9.16758 132.2 9.71507 132.785 10.1639L133.116 9.73174ZM131.857 8.26235C131.55 7.70022 131.39 7.00694 131.39 6.17117H130.846C130.846 7.07562 131.019 7.86336 131.379 8.52309L131.857 8.26235ZM131.39 6.17117C131.39 5.16055 131.629 4.29688 132.097 3.56923L131.639 3.27479C131.107 4.10222 130.846 5.07132 130.846 6.17117H131.39ZM132.096 3.57057C132.587 2.81695 133.253 2.22868 134.1 1.80497L133.857 1.31796C132.927 1.78286 132.186 2.43496 131.64 3.27345L132.096 3.57057ZM134.104 1.80292C134.952 1.36153 135.929 1.1197 137.042 1.0838L137.024 0.539582C135.842 0.577732 134.782 0.835745 133.853 1.32L134.104 1.80292ZM137.033 1.08394C138.308 1.08394 139.417 1.2388 140.365 1.54301L140.532 1.02453C139.518 0.6993 138.35 0.539441 137.033 0.539441V1.08394ZM140.367 1.54345C141.349 1.8527 142.208 2.233 142.945 2.68253L143.228 2.21764C142.448 1.74151 141.547 1.34428 140.53 1.02408L140.367 1.54345ZM142.843 2.32833L141.816 4.38326L142.303 4.62676L143.33 2.57183L142.843 2.32833Z" fill="#F0F0F0" mask="url(#path-2-outside-1_610_229)"/>
<rect x="55.3691" y="23.3914" width="90" height="27.5658" rx="7.77217" fill="#6366F1"/>
<mask id="path-5-outside-2_610_229" maskUnits="userSpaceOnUse" x="65.4536" y="26.1743" width="60" height="21" fill="black">
<rect fill="white" x="65.4536" y="26.1743" width="60" height="21"/>
<path d="M65.7705 27.5061H78.1643V29.9074H73.1551V46.1743H70.6505V29.9074H65.7705V27.5061ZM77.2712 46.1743L85.4305 26.7315H85.5854L93.7189 46.1743H90.8528L84.7592 30.6562L86.5408 29.4943L79.7242 46.1743H77.2712ZM82.048 39.0995H88.9937L89.82 41.2684H81.325L82.048 39.0995ZM95.6856 27.5061H98.1902V43.773H107.666V46.1743H95.6856V27.5061ZM112.729 35.0199L112.651 35.9494L112.987 35.4847L120.63 27.5061H123.858L116.137 35.5105L124.296 46.1743H121.121L114.304 37.1113L112.729 38.6348V46.1743H110.199V27.5061H112.729V35.0199Z"/>
</mask>
<path d="M65.7705 27.5061H78.1643V29.9074H73.1551V46.1743H70.6505V29.9074H65.7705V27.5061ZM77.2712 46.1743L85.4305 26.7315H85.5854L93.7189 46.1743H90.8528L84.7592 30.6562L86.5408 29.4943L79.7242 46.1743H77.2712ZM82.048 39.0995H88.9937L89.82 41.2684H81.325L82.048 39.0995ZM95.6856 27.5061H98.1902V43.773H107.666V46.1743H95.6856V27.5061ZM112.729 35.0199L112.651 35.9494L112.987 35.4847L120.63 27.5061H123.858L116.137 35.5105L124.296 46.1743H121.121L114.304 37.1113L112.729 38.6348V46.1743H110.199V27.5061H112.729V35.0199Z" fill="#F0F0F0"/>
<path d="M65.7705 27.5061V27.2339H65.4982V27.5061H65.7705ZM78.1643 27.5061H78.4365V27.2339H78.1643V27.5061ZM78.1643 29.9074V30.1797H78.4365V29.9074H78.1643ZM73.1551 29.9074V29.6352H72.8828V29.9074H73.1551ZM73.1551 46.1743V46.4466H73.4273V46.1743H73.1551ZM70.6505 46.1743H70.3783V46.4466H70.6505V46.1743ZM70.6505 29.9074H70.9228V29.6352H70.6505V29.9074ZM65.7705 29.9074H65.4982V30.1797H65.7705V29.9074ZM65.7705 27.7784H78.1643V27.2339H65.7705V27.7784ZM77.892 27.5061V29.9074H78.4365V27.5061H77.892ZM78.1643 29.6352H73.1551V30.1797H78.1643V29.6352ZM72.8828 29.9074V46.1743H73.4273V29.9074H72.8828ZM73.1551 45.9021H70.6505V46.4466H73.1551V45.9021ZM70.9228 46.1743V29.9074H70.3783V46.1743H70.9228ZM70.6505 29.6352H65.7705V30.1797H70.6505V29.6352ZM66.0427 29.9074V27.5061H65.4982V29.9074H66.0427ZM77.2712 46.1743L77.0202 46.069L76.8617 46.4466H77.2712V46.1743ZM85.4305 26.7315V26.4593H85.2495L85.1795 26.6262L85.4305 26.7315ZM85.5854 26.7315L85.8366 26.6265L85.7666 26.4593H85.5854V26.7315ZM93.7189 46.1743V46.4466H94.1278L93.97 46.0693L93.7189 46.1743ZM90.8528 46.1743L90.5994 46.2738L90.6672 46.4466H90.8528V46.1743ZM84.7592 30.6562L84.6104 30.4282L84.4247 30.5493L84.5058 30.7557L84.7592 30.6562ZM86.5408 29.4943L86.7928 29.5973L87.1228 28.7897L86.3921 29.2663L86.5408 29.4943ZM79.7242 46.1743V46.4466H79.907L79.9762 46.2773L79.7242 46.1743ZM82.048 39.0995V38.8273H81.8518L81.7897 39.0134L82.048 39.0995ZM88.9937 39.0995L89.2481 39.0026L89.1813 38.8273H88.9937V39.0995ZM89.82 41.2684V41.5407H90.215L90.0744 41.1715L89.82 41.2684ZM81.325 41.2684L81.0668 41.1823L80.9473 41.5407H81.325V41.2684ZM77.5223 46.2797L85.6815 26.8369L85.1795 26.6262L77.0202 46.069L77.5223 46.2797ZM85.4305 27.0038H85.5854V26.4593H85.4305V27.0038ZM85.3343 26.8366L93.4677 46.2794L93.97 46.0693L85.8366 26.6265L85.3343 26.8366ZM93.7189 45.9021H90.8528V46.4466H93.7189V45.9021ZM91.1062 46.0748L85.0126 30.5567L84.5058 30.7557L90.5994 46.2738L91.1062 46.0748ZM84.9079 30.8843L86.6895 29.7224L86.3921 29.2663L84.6104 30.4282L84.9079 30.8843ZM86.2888 29.3913L79.4722 46.0713L79.9762 46.2773L86.7928 29.5973L86.2888 29.3913ZM79.7242 45.9021H77.2712V46.4466H79.7242V45.9021ZM82.048 39.3718H88.9937V38.8273H82.048V39.3718ZM88.7393 39.1964L89.5656 41.3654L90.0744 41.1715L89.2481 39.0026L88.7393 39.1964ZM89.82 40.9962H81.325V41.5407H89.82V40.9962ZM81.5833 41.3545L82.3063 39.1856L81.7897 39.0134L81.0668 41.1823L81.5833 41.3545ZM95.6856 27.5061V27.2339H95.4134V27.5061H95.6856ZM98.1902 27.5061H98.4625V27.2339H98.1902V27.5061ZM98.1902 43.773H97.918V44.0453H98.1902V43.773ZM107.666 43.773H107.939V43.5008H107.666V43.773ZM107.666 46.1743V46.4466H107.939V46.1743H107.666ZM95.6856 46.1743H95.4134V46.4466H95.6856V46.1743ZM95.6856 27.7784H98.1902V27.2339H95.6856V27.7784ZM97.918 27.5061V43.773H98.4625V27.5061H97.918ZM98.1902 44.0453H107.666V43.5008H98.1902V44.0453ZM107.394 43.773V46.1743H107.939V43.773H107.394ZM107.666 45.9021H95.6856V46.4466H107.666V45.9021ZM95.9579 46.1743V27.5061H95.4134V46.1743H95.9579ZM112.729 35.0199L113 35.0425L113.001 35.0312V35.0199H112.729ZM112.651 35.9494L112.38 35.9268L112.299 36.9027L112.872 36.1088L112.651 35.9494ZM112.987 35.4847L112.791 35.2963L112.777 35.31L112.766 35.3253L112.987 35.4847ZM120.63 27.5061V27.2339H120.514L120.433 27.3178L120.63 27.5061ZM123.858 27.5061L124.053 27.6951L124.498 27.2339H123.858V27.5061ZM116.137 35.5105L115.941 35.3215L115.779 35.49L115.921 35.6759L116.137 35.5105ZM124.296 46.1743V46.4466H124.848L124.513 46.0089L124.296 46.1743ZM121.121 46.1743L120.903 46.338L120.985 46.4466H121.121V46.1743ZM114.304 37.1113L114.522 36.9477L114.336 36.7014L114.115 36.9157L114.304 37.1113ZM112.729 38.6348L112.54 38.4391L112.457 38.5193V38.6348H112.729ZM112.729 46.1743V46.4466H113.001V46.1743H112.729ZM110.199 46.1743H109.926V46.4466H110.199V46.1743ZM110.199 27.5061V27.2339H109.926V27.5061H110.199ZM112.729 27.5061H113.001V27.2339H112.729V27.5061ZM112.458 34.9973L112.38 35.9268L112.923 35.972L113 35.0425L112.458 34.9973ZM112.872 36.1088L113.208 35.6441L112.766 35.3253L112.431 35.79L112.872 36.1088ZM113.184 35.673L120.827 27.6945L120.433 27.3178L112.791 35.2963L113.184 35.673ZM120.63 27.7784H123.858V27.2339H120.63V27.7784ZM123.662 27.3171L115.941 35.3215L116.333 35.6995L124.053 27.6951L123.662 27.3171ZM115.921 35.6759L124.08 46.3398L124.513 46.0089L116.353 35.345L115.921 35.6759ZM124.296 45.9021H121.121V46.4466H124.296V45.9021ZM121.338 46.0107L114.522 36.9477L114.086 37.275L120.903 46.338L121.338 46.0107ZM114.115 36.9157L112.54 38.4391L112.918 38.8304L114.493 37.307L114.115 36.9157ZM112.457 38.6348V46.1743H113.001V38.6348H112.457ZM112.729 45.9021H110.199V46.4466H112.729V45.9021ZM110.471 46.1743V27.5061H109.926V46.1743H110.471ZM110.199 27.7784H112.729V27.2339H110.199V27.7784ZM112.457 27.5061V35.0199H113.001V27.5061H112.457Z" fill="#F0F0F0" mask="url(#path-5-outside-2_610_229)"/>
<path d="M129.656 34.3303L129.717 34.3453L129.771 34.3111L136.348 30.1261L136.616 29.9551L136.313 29.8577L135.381 29.5589L135.316 29.538L135.258 29.5735L128.383 33.7586L128.074 33.9463L128.425 34.0315L129.656 34.3303Z" fill="#F0F0F0" stroke="#F0F0F0" stroke-width="0.29893" stroke-linecap="square"/>
<path d="M129.599 37.7722V37.9216H129.748H134.979H135.129V37.7722V36.8755V36.726H134.979H129.748H129.599V36.8755V37.7722Z" fill="#F0F0F0" stroke="#F0F0F0" stroke-width="0.29893" stroke-linecap="square"/>
<path d="M128.414 40.6145L127.984 40.7004L128.377 40.8949L136.218 44.7809L136.485 44.9132L136.432 44.6201L136.213 43.4245L136.199 43.3502L136.131 43.3171L130.003 40.3278L129.958 40.3057L129.908 40.3156L128.414 40.6145Z" fill="#F0F0F0" stroke="#F0F0F0" stroke-width="0.29893" stroke-linecap="square"/>
</svg>
